<svg width="80.021" height="80" preserveAspectRatio="xMidYMid" version="1.1" viewBox="0 0 25.607 25.6" xmlns="http://www.w3.org/2000/svg">
 <g transform="scale(.10003)">
  <path d="m256 128c0-70.596-57.422-128-128-128-70.574 0-128 57.4-128 128 0 66.693 51.273 121.63 116.47 127.47h0.31367c1.0699 0.0924 2.1421 0.17264 3.2169 0.24072l0.62003 0.0365c0.97259 0.0584 1.9598 0.10213 2.9616 0.1313h0.78051c1.2109 0 2.4218 0.0584 3.6472 0.0584s2.3124 0 3.4649-0.0511h0.48873c1.0164-0.0292 2.0279-0.0705 3.0345-0.12401h0.20424c2.271-0.12644 4.5274-0.31366 6.7693-0.56167 64.024-6.9444 114.03-61.339 114.03-127.2zm-114.47 115.02-1.2328-35.4 30.914-18.966c7.2342 4.9585 16.64 5.4358 24.339 1.2352 7.6991-4.2006 12.388-12.368 12.134-21.135-0.4955-12.278-10.335-22.117-22.613-22.613-6.956-0.24955-13.656 2.6416-18.246 7.874-4.5903 5.2323-6.5848 12.251-5.432 19.116l-21.818 13.495-1.5829-44.606 30.425-18.608c10.688 7.982 25.57 7.116 35.26-2.0518 9.6905-9.1679 11.379-23.979 4.0015-35.093s-21.682-15.308-33.893-9.9372c-12.211 5.3708-18.787 18.749-15.581 31.698l-20.942 12.999-1.2401-35.597c9.9642-3.8528 16.368-13.624 15.924-24.298-0.51883-12.446-10.144-22.6-22.545-23.782-12.401-1.182-23.771 6.9701-26.632 19.094-2.8608 12.124 3.6658 24.499 15.287 28.985l-2.2613 73.755-22.795-14.523c1.5209-6.215 0.7948-12.768-2.0498-18.499-4.5591-9.4828-13.75-16.208-24.232-16.865-12.964-0.84612-24.898 7.0637-29.169 19.333s0.17107 25.88 10.857 33.267 24.989 6.7339 34.958-1.5966l31.775 20.104-1.9112 62.477c-56.897-7.258-101.09-56.007-101.09-114.88 0.043767-63.856 51.995-115.82 115.86-115.82 63.863 0 115.81 51.951 115.81 115.81 0 59.29-44.781 108.3-102.28 115.03z" fill="#333e48"/>
  <path d="m127.27 47.164c8.3231 8e-3 15.068 6.7532 15.076 15.076 0 8.3264-6.7499 15.076-15.076 15.076-8.3264 0-15.076-6.7499-15.076-15.076s6.7499-15.076 15.076-15.076zm56.836 108.64c7.5503-4e-3 13.681 6.1006 13.709 13.651 0.0147 5.5373-3.3084 10.538-8.4191 12.669s-11.002 0.97322-14.926-2.9339c-3.9238-3.9071-5.1069-9.7935-2.9974-14.913 2.1095-5.1197 7.096-8.4641 12.633-8.4729zm8.4364-39.709c-7.9977 3.8862-17.632 0.56422-21.535-7.4254-2.8546-5.8573-1.8994-12.857 2.4199-17.736 4.3194-4.8785 11.152-6.6745 17.312-4.5504 6.16 2.1241 10.434 7.7498 10.828 14.254 0.39454 6.5039-3.1679 12.605-9.0259 15.458zm-128.19 4.48c9.5924 8e-3 17.367 7.7822 17.375 17.375-4e-3 9.5898-7.7799 17.361-17.37 17.36s-17.364-7.7751-17.365-17.365c-0.0013-9.5898 7.7702-17.366 17.36-17.37z" fill="#009bde"/>
 </g>
 <path d="m25.607 12.803c0-7.0614-5.7437-12.803-12.803-12.803-7.0592 0-12.804 5.7415-12.804 12.803 0 6.6711 5.1286 12.166 11.65 12.75h0.03138c0.10701 0.0092 0.21427 0.01727 0.32177 0.02408l0.06202 0.0037c0.09728 0.0058 0.19603 0.01021 0.29623 0.01313h0.07807c0.12112 0 0.24224 0.0058 0.36482 0.0058 0.12258 0 0.2313 0 0.34658-0.0051h0.04889c0.10166-0.0029 0.20284-0.0071 0.30353-0.0124h0.02043c0.22716-0.01265 0.45286-0.03137 0.6771-0.05618 6.404-0.69462 11.406-6.1355 11.406-12.723zm-11.449 11.505-0.12331-3.5409 3.0922-1.8971c0.72361 0.49598 1.6644 0.54372 2.4345 0.12356 0.7701-0.42017 1.2391-1.2371 1.2137-2.114-0.04956-1.2281-1.0338-2.2123-2.2619-2.2619-0.69578-0.02496-1.3659 0.26423-1.8251 0.7876-0.45915 0.52337-0.65865 1.2254-0.54334 1.9121l-2.1823 1.3498-0.15833-4.4617 3.0433-1.8613c1.0691 0.79841 2.5576 0.71179 3.5269-0.20524 0.9693-0.91702 1.1382-2.3985 0.40025-3.5102-0.73797-1.1117-2.1688-1.5312-3.3902-0.99398-1.2214 0.53722-1.8792 1.8753-1.5585 3.1706l-2.0948 1.3002-0.12404-3.5606c0.99668-0.38538 1.6372-1.3628 1.5928-2.4304-0.0519-1.2449-1.0147-2.2605-2.2551-2.3788-1.2404-0.11823-2.3777 0.69718-2.6639 1.9099-0.28616 1.2127 0.36667 2.4505 1.5291 2.8993l-0.22619 7.3773-2.2801-1.4527c0.15212-0.62166 0.0795-1.2771-0.20503-1.8504-0.45602-0.94853-1.3754-1.6213-2.4238-1.6869-1.2967-0.08463-2.4904 0.70655-2.9177 1.9338-0.42723 1.2272 0.017111 2.5887 1.086 3.3276 1.0689 0.7389 2.4995 0.67356 3.4967-0.1597l3.1783 2.0109-0.19116 6.2493c-5.6912-0.72599-10.111-5.6021-10.111-11.491 0.0043779-6.3872 5.2008-11.585 11.589-11.585 6.388 0 11.584 5.1965 11.584 11.584 0 5.9305-4.4792 10.833-10.231 11.506z" fill="#2afce5" stroke-width=".10003"/>
 <path d="m12.731 4.7176c0.83252 8.003e-4 1.5072 0.6755 1.508 1.508 0 0.83286-0.67516 1.508-1.508 1.508-0.83286 0-1.508-0.67516-1.508-1.508 0-0.83286 0.67516-1.508 1.508-1.508zm5.6851 10.867c0.75522-4e-4 1.3685 0.61022 1.3713 1.3654 0.0015 0.55387-0.33092 1.0541-0.84213 1.2672-0.5112 0.21318-1.1005 0.09735-1.493-0.29347-0.39248-0.39081-0.51082-0.9796-0.29981-1.4917 0.211-0.5121 0.70978-0.84662 1.2636-0.84751zm0.84385-3.9719c-0.79997 0.38872-1.7636 0.05644-2.154-0.74274-0.28553-0.58588-0.18999-1.2861 0.24206-1.7741 0.43205-0.48798 1.1155-0.66762 1.7317-0.45516 0.61615 0.21246 1.0436 0.77518 1.0831 1.4257 0.03946 0.65056-0.31687 1.2608-0.90282 1.5462zm-12.822 0.44812c0.95948 8e-4 1.7371 0.77842 1.7379 1.7379-4.001e-4 0.95922-0.77819 1.7366-1.7374 1.7364-0.95922-1.34e-4 -1.7368-0.77771-1.7369-1.7369-1.3e-4 -0.95922 0.77722-1.737 1.7364-1.7374z" fill="#fc2a41" stroke-width=".10003"/>
</svg>
