<?xml version="1.0" encoding="UTF-8"?>
<svg width="367.98" height="99.998" preserveAspectRatio="xMidYMid" version="1.1" viewBox="91.209 14 367.98 99.998" xmlns="http://www.w3.org/2000/svg">
 <g transform="matrix(1.6966 0 0 1.6966 -147.46 -85.067)" fill="#217867">
  <g transform="translate(141.69,104.47)" fill="#217867">
   <path d="m20.22-22.46q0.9-2.37 0.9-4.42 0-3.78-3.07-3.78-1.6 0-2.91 1.44-1.32 1.44-1.32 3.24 0 1.28 1.03 2.3 1.47 1.41 5.25 3.71 3.77 2.31 5.21 4.19 1.44 1.89 1.44 4.48 0 2.6-1.25 4.96-1.24 2.37-3.48 4.04-4.8 3.58-12.48 3.58-4.16 0-7.36-2.18-3.2-2.11-3.2-4.6 0-2.5 1.82-3.97t4.51-1.47 4.35 1.02q-0.83 2.11-0.83 3.52 0 4.22 3.59 4.22 1.53 0 2.56-0.96 1.02-0.96 1.02-2.62 0-3.26-5.5-6.72-4.48-2.94-5.51-4.1-1.73-2.04-1.73-4.6t1.22-5q1.22-2.43 3.46-4.16 4.67-3.58 12.8-3.58 4.16 0 6.62 1.66 2.46 1.67 2.46 4.48 0 2.82-1.69 4.42-1.7 1.6-4.77 1.6-2.11 0-3.14-0.7zm43.4-4.16q0 2.68-2.24 4.35-2.24 1.66-5.89 1.66-1.54 0-2.43-0.45 0.7-1.66 0.92-3.74 0.23-2.08 0.23-2.66 0-2.68-1.86-2.68-1.28 0-2.72 1.6t-2.65 4.09q-2.69 5.76-2.69 11.59 0 3.2 1.21 4.64 1.22 1.44 3.91 1.44 3.71 0 6.65-3.08 0.84-0.96 1.28-2.04 2.44 1.28 2.44 4.8 0 3.58-3.97 5.95-4.1 2.43-10.63 2.43-12.99 0-12.99-13.76 0-10.05 5.7-15.81 5.5-5.63 15.61-5.63 10.12 0 10.12 7.3zm21.76 8.64q2.3-4.1 2.3-8.26 0-2.75-1.98-2.75-1.54 0-3.14 2.62-1.66 2.63-2.18 6.02l-3.32 20.35-13.25 1.28 6.53-33.92 10.56-1.28-1.16 6.46q3.14-6.46 10.18-6.46 3.71 0 5.73 1.92 2.01 1.92 2.01 5.86 0 3.93-2.59 6.43-2.59 2.49-7.01 2.49-1.92 0-2.68-0.76zm33.85 15.29q-3.07 3.97-10.69 3.97-3.96 0-6.84-2.4t-2.88-5.86q0-1.92 0.19-2.88l4.29-22.78 12.99-1.28-4.67 24.7q-0.26 1.41-0.26 2.24 0 3.72 2.24 3.72 2.5 0 4.29-3.4 0.57-1.08 0.83-2.49l4.54-23.49 12.61-1.28-4.73 24.96q-0.2 0.96-0.2 1.98 0 1.03 0.58 2.15t2.43 1.37q-0.38 1.54-1.73 2.56-2.81 2.18-5.85 2.18t-4.83-1.09q-1.8-1.09-2.31-2.88zm19.27-0.38 7.93-41.73 12.99-1.28-1.98 9.79q-0.7 3.01-1.6 5.12 1.41-1.79 4.48-2.49 0.9-0.26 1.98-0.26 5.96 0 9.22 3.62 3.26 3.61 3.26 10.59 0 9.09-5.18 14.78-5.57 6.21-15.68 6.21-6.98 0-12.22-2.3-1.86-0.84-3.2-2.05zm16.25-19.33-3.39 18.75q1.34 1.15 3.01 1.15 1.66 0 2.62-0.64t1.67-1.92q1.92-3.45 3.45-14.01 0.45-3.01 0.45-6.02t-0.67-3.97-1.95-0.96q-3.91 0-5.19 7.62zm44.23 15.17q-3.33 3.45-9.41 3.45-7.62 0-9.22-5.56-0.51-1.67-0.51-3.52 0-1.86 0.38-3.78l3.01-16 12.99-1.28-3.52 18.62q-0.12 0.84-0.32 1.73-0.19 0.9-0.19 1.83 0 0.92 0.32 1.53t0.77 0.99q0.77 0.52 2.14 0.52 1.38 0 2.56-1.67 1.19-1.66 1.76-4.54l3.52-17.73 12.61-1.28-4.8 25.15q-2.37 12.29-7.23 17.15-2.5 2.5-5.73 3.49t-7.39 0.99q-6.72 0-10.56-2.11t-3.84-5.63q0-2.62 1.98-4.13 1.99-1.5 5.06-1.5 2.69 0 4.74 1.15 1.21 0.7 1.79 1.6-1.47 1.28-1.47 3.39 0 2.82 2.56 2.82 4.22 0 6.65-9.73 0.71-2.88 1.35-5.95z" fill="#217867"/>
  </g>
 </g>
 <style>text {
  font-size: 64px;
  font-family: Arial Black;
  dominant-baseline: central;
  text-anchor: middle;
}</style>
</svg>
