<?xml version="1.0" encoding="UTF-8"?>
<svg width="150" height="150" version="1.1" viewBox="0 0 150 150" xmlns="http://www.w3.org/2000/svg" xmlns:xlink="http://www.w3.org/1999/xlink">
 <defs>
  <linearGradient id="linearGradient14">
   <stop stop-color="#347736" offset="0"/>
   <stop stop-color="#0125ed" offset="1"/>
  </linearGradient>
  <linearGradient id="linearGradient24" x1="21.967" x2="128.03" y1="128.03" y2="21.967" gradientUnits="userSpaceOnUse" spreadMethod="reflect">
   <stop stop-color="#347736" offset=".38228"/>
   <stop stop-color="#0125ed" offset="1"/>
  </linearGradient>
  <linearGradient id="linearGradient6" x1="21.967" x2="128.03" y1="128.03" y2="21.967" gradientUnits="userSpaceOnUse" spreadMethod="reflect" xlink:href="#linearGradient24"/>
  <linearGradient id="linearGradient8" x1="48.122" x2="101.88" y1="145.02" y2="4.982" gradientUnits="userSpaceOnUse" spreadMethod="reflect" xlink:href="#linearGradient24"/>
  <filter id="editing-jagged" x="0" y="0" width="1" height="1">
   <feTurbulence baseFrequency="0" result="turb" seed="1"/>
   <feDisplacementMap in="SourceGraphic" in2="turb"/>
  </filter>
  <linearGradient id="linearGradient15" x1="275.85" x2="224.15" y1="-20.132" y2="172.81" gradientUnits="userSpaceOnUse" xlink:href="#linearGradient14"/>
 </defs>
 <g transform="translate(8e-4,8e-4)">
  <g fill="url(#linearGradient6)">
   <g fill="url(#linearGradient6)">
    <g transform="matrix(.36058 0 0 .36058 -17.309 -17.309)" fill="url(#linearGradient8)" style="mix-blend-mode:normal">
     <path d="m256 48c-114.9 0-208 93.1-208 208s93.1 208 208 208 208-93.1 208-208-93.1-208-208-208zm0 398.7c-105.1 0-190.7-85.5-190.7-190.7 0-105.1 85.5-190.7 190.7-190.7 105.1 0 190.7 85.5 190.7 190.7 0 105.1-85.6 190.7-190.7 190.7z" fill="url(#linearGradient6)"/>
    </g>
    <g transform="matrix(.50063 0 0 .50063 -50.157 36.782)" fill="url(#linearGradient15)" filter="url(#editing-jagged)">
     <g transform="translate(149.74 98.1)" fill="url(#linearGradient15)">
      <g fill="url(#linearGradient15)">
       <path d="m12.93 0.83-4.1-0.13q-1.98-0.06-4.06-0.06t-4.13 0.26q-0.26-1.03-0.26-2.24 0-2.56 1.44-4.1t3.68-1.54h3.46l5.38-24.19q-1.99 1.99-6.08 1.99-2.05 0-3.65-1.92-1.6-1.8-1.86-4.36 9.47-1.66 23.62-8l2.05 2.44-6.21 34.04h1.6q3.84 0 5.82-0.7 0.83 1.41 0.83 3.71 0 2.31-1.69 3.68-1.7 1.38-4.51 1.38-5.7 0-11.33-0.26zm53.31-33.73q-1.92-2.49-6.46-2.49-5.96 0-9.22 4.16-2.3 2.88-3.33 8.06 1.67-2.75 3.87-4.19 2.21-1.44 5.28-1.44 3.08 0 5.03 1.09t3.17 2.88q2.3 3.33 2.3 8.06 0 4.74-1.7 8.07-1.69 3.32-4.32 5.56-2.62 2.24-5.85 3.36t-6.27 1.12-5.54-0.99-4.29-2.97q-3.9-4.23-3.9-11.78 0-5.06 1.73-10.24 1.72-5.18 4.86-9.41 3.14-4.22 7.42-6.91 4.29-2.69 9.16-2.69 4.86 0 7.61 1.54 2.75 1.53 2.75 4.35 0 3.07-2.3 4.86zm-18.27 13.89q-0.87 1.35-1.38 3.14t-0.51 4.32 1.12 4.16 2.91 1.63 2.85-1.25 1.63-2.97q1.03-3.08 1.03-5.89 0-2.82-1-4.42-0.99-1.6-2.33-1.6-1.35 0-2.4 0.77-1.06 0.77-1.92 2.11zm43.04 0.64q-3.52 0-5.25-7.61l-4.03 5.24q-1.6 2.24-2.11 3.4-1.54 0-2.72-1-1.19-0.99-1.19-2.81 0-1.83 2.69-4.45 1.86-2.05 4.35-3.97-2.11-0.51-4.35-0.99t-4.61-0.48q0-2.43 1.28-4.29 1.28-1.85 3.46-1.85 2.17 0 3.97 0.96l3.52 1.92q0.7-5.38 0.7-7.3t-0.06-2.24q1.53-1.02 3.26-1.02 3.2 0 3.2 3.26 0 3.07-2.18 7.94 7.56-3.01 9.35-4.55 1.34 1.35 1.34 3.23 0 1.89-1.12 3.01t-2.78 1.76q-2.43 1.03-6.91 1.6 1.47 2.43 2.97 4.29 1.51 1.86 2.34 2.37-1.92 3.58-5.12 3.58zm31.1 0q-3.52 0-5.25-7.61l-4.03 5.24q-1.6 2.24-2.11 3.4-1.54 0-2.72-1-1.18-0.99-1.18-2.81 0-1.83 2.68-4.45 1.86-2.05 4.36-3.97-2.12-0.51-4.36-0.99t-4.6-0.48q0-2.43 1.28-4.29 1.28-1.85 3.45-1.85 2.18 0 3.97 0.96l3.52 1.92q0.7-5.38 0.7-7.3t-0.06-2.24q1.54-1.02 3.26-1.02 3.2 0 3.2 3.26 0 3.07-2.17 7.94 7.55-3.01 9.34-4.55 1.35 1.35 1.35 3.23 0 1.89-1.12 3.01t-2.79 1.76q-2.43 1.03-6.91 1.6 1.47 2.43 2.98 4.29 1.5 1.86 2.33 2.37-1.92 3.58-5.12 3.58zm32-4.73q8.45 2.17 8.45 10.43 0 5.95-5.06 9.85-5.37 4.1-14.2 4.1-5.25 0-8.39-2.02-3.13-2.01-3.13-5.34t2.49-5.38q1.28 2.37 3.55 3.46 2.28 1.09 5.19 1.09t4.77-1.54q1.85-1.53 1.85-4.54 0-5.7-7.81-5.7l1.09-5.76q9.35-1.53 9.35-6.14 0-1.86-1.28-2.88-1.28-1.03-3.72-1.03-4.28 0-8.06 3.97-1.22-0.32-1.73-1.18-0.51-0.87-0.51-2.66t1.28-3.49q1.28-1.69 3.52-2.97 4.8-2.69 11.26-2.69 4.93 0 8.07 2.56 3.26 2.62 3.26 6.53 0 3.52-2.81 6.59-2.82 3.07-7.43 4.74zm13.19 21.5-0.39-7.87 8-6.15 4.99-4.09q2.56-2.18 4.42-4.1 3.39-3.39 3.39-6.65 0-1.92-1.25-2.95-1.24-1.02-3.07-1.02-1.82 0-3.13 0.41-1.32 0.42-2.47 1.12-2.43 1.6-3.58 4.04-1.6-0.07-2.66-1.41-1.05-1.35-1.05-3.3t1.21-3.77q1.22-1.83 3.39-3.24 4.74-2.94 11.24-2.94 6.49 0 10.14 2.82 3.65 2.81 3.65 7.61 0 3.59-1.76 6.85t-6.43 6.59l-6.92 4.87-4.16 2.75-5.31 3.26 2.24 0.26q1.54 0.19 4.23 0.19 2.68 0 4.92-0.29t4.16-0.86q4.23-1.15 5.57-2.75 0.71 0.51 1.25 1.82t0.54 2.91q0 4.8-3.64 6.79-3.65 1.98-11.14 1.98-3.9 0-9.09-1.12-5.18-1.12-7.29-1.76z" fill="url(#linearGradient15)"/>
      </g>
     </g>
    </g>
   </g>
  </g>
 </g>
</svg>
